<svg width="40" height="40" viewBox="0 0 40 40" fill="none" xmlns="http://www.w3.org/2000/svg">
<ellipse cx="20" cy="37.5" rx="7" ry="2.5" fill="black" fill-opacity="0.2"/>
<path fill-rule="evenodd" clip-rule="evenodd" d="M33.3327 16.6666C33.3327 24.9883 24.101 33.655 21.001 36.3316C20.7122 36.5488 20.3607 36.6662 19.9993 36.6662C19.638 36.6662 19.2865 36.5488 18.9977 36.3316C15.8977 33.655 6.66602 24.9883 6.66602 16.6666C6.66602 13.1304 8.07077 9.73904 10.5713 7.23856C13.0717 4.73807 16.4631 3.33331 19.9993 3.33331C23.5356 3.33331 26.927 4.73807 29.4274 7.23856C31.9279 9.73904 33.3327 13.1304 33.3327 16.6666ZM19.9993 21.6666C22.7608 21.6666 24.9993 19.4281 24.9993 16.6666C24.9993 13.9052 22.7608 11.6666 19.9993 11.6666C17.2379 11.6666 14.9993 13.9052 14.9993 16.6666C14.9993 19.4281 17.2379 21.6666 19.9993 21.6666Z" fill="#179E73"/>
</svg>
