{
  "asset": {
    "version": "2.0",
    "generator": "THREE.GLTFExporter"
  },
  "scenes": [
    {
      "nodes": [
        0
      ]
    }
  ],
  "scene": 0,
  "nodes": [
    {
      "children": [
        6
      ],
      "matrix": [
        0.01,
        0,
        0,
        0,
        0,
        0.01,
        0,
        0,
        0,
        0,
        0.01,
        0,
        0,
        0,
        0,
        1
      ]
    },
    {
      "matrix": [
        0.48453362502705827,
        0.18662207705898262,
        0,
        0,
        -0.1866220770589826,
        0.4845336250270585,
        0,
        0,
        0,
        0,
        0.519230809397585,
        0,
        -76.60492592580341,
        -70.63915653416092,
        0.7151079137461593,
        1
      ],
      "name": "banana skin",
      "mesh": 0
    },
    {
      "matrix": [
        -0.46179633856225294,
        -0.07945667302683415,
        0,
        0,
        -0.044938785591528085,
        0.2611809160269425,
        0,
        0,
        0,
        0,
        0.46858213922214026,
        0,
        45.000496192532786,
        97.923351301323,
        -0.1333439579319311,
        1
      ],
      "name": "interior banana",
      "mesh": 1
    },
    {
      "matrix": [
        0.65,
        0,
        0,
        0,
        0,
        0.6499999999999998,
        0,
        0,
        0,
        0,
        0.6499999999999998,
        0,
        0,
        0,
        0,
        1
      ],
      "name": "Banana",
      "children": [
        1,
        2
      ]
    },
    {
      "matrix": [
        0.9105315359873188,
        -2.104566338215208e-8,
        0.41343962312842425,
        0,
        0.021214528962648593,
        0.9986826597352221,
        -0.046721396651594395,
        0,
        -0.4128949814825397,
        0.0513122319158135,
        0.9093320565790866,
        0,
        -412.8949814825445,
        51.3122319158141,
        909.3320565790872,
        1
      ],
      "camera": 0
    },
    {
      "matrix": [
        1,
        0,
        0,
        0,
        0,
        1,
        0,
        0,
        0,
        0,
        1,
        0,
        0,
        1,
        0,
        1
      ],
      "name": "Default Ambient Light"
    },
    {
      "name": "Scene 1",
      "children": [
        3,
        4,
        5
      ]
    }
  ],
  "bufferViews": [
    {
      "buffer": 0,
      "byteOffset": 0,
      "byteLength": 135168,
      "target": 34962,
      "byteStride": 12
    },
    {
      "buffer": 0,
      "byteOffset": 135168,
      "byteLength": 135168,
      "target": 34962,
      "byteStride": 12
    },
    {
      "buffer": 0,
      "byteOffset": 270336,
      "byteLength": 67584,
      "target": 34963
    },
    {
      "buffer": 0,
      "byteOffset": 337920,
      "byteLength": 7680,
      "target": 34962,
      "byteStride": 12
    },
    {
      "buffer": 0,
      "byteOffset": 345600,
      "byteLength": 7680,
      "target": 34962,
      "byteStride": 12
    },
    {
      "buffer": 0,
      "byteOffset": 353280,
      "byteLength": 3840,
      "target": 34963
    }
  ],
  "buffers": [
    {
      "byteLength": 357120,
      "uri": "data:application/octet-stream;base64,"
    }
  ],
  "accessors": [
    {
      "bufferView": 0,
      "componentType": 5126,
      "count": 11264,
      "max": [
        354.21270751953125,
        173.18801879882812,
        150.41812133789062
      ],
      "min": [
        -12.5,
        -94.83006286621094,
        -48.96976089477539
      ],
      "type": "VEC3"
    },
    {
      "bufferView": 1,
      "componentType": 5126,
      "count": 11264,
      "max": [
        0.9967926144599915,
        1,
        1
      ],
      "min": [
        -1,
        -1,
        -1
      ],
      "type": "VEC3"
    },
    {
      "bufferView": 2,
      "componentType": 5125,
      "count": 16896,
      "max": [
        11263
      ],
      "min": [
        0
      ],
      "type": "SCALAR"
    },
    {
      "bufferView": 3,
      "componentType": 5126,
      "count": 640,
      "max": [
        98.94171142578125,
        65.42056274414062,
        49.34624099731445
      ],
      "min": [
        -47.06300354003906,
        -430.2748718261719,
        -49.34624099731445
      ],
      "type": "VEC3"
    },
    {
      "bufferView": 4,
      "componentType": 5126,
      "count": 640,
      "max": [
        0.9980432987213135,
        1,
        0.9999009370803833
      ],
      "min": [
        -0.9997978806495667,
        -0.9998788833618164,
        -0.9999009370803833
      ],
      "type": "VEC3"
    },
    {
      "bufferView": 5,
      "componentType": 5125,
      "count": 960,
      "max": [
        639
      ],
      "min": [
        0
      ],
      "type": "SCALAR"
    }
  ],
  "materials": [
    {
      "pbrMetallicRoughness": {
        "baseColorFactor": [
          0.46331710316815905,
          0.276508642857401,
          0.08576360110055303,
          1
        ],
        "metallicFactor": 0,
        "roughnessFactor": 0.995
      },
      "doubleSided": false
    },
    {
      "pbrMetallicRoughness": {
        "baseColorFactor": [
          0.5722182328541697,
          0.46622685248433615,
          0.30203122960031176,
          1
        ],
        "metallicFactor": 0,
        "roughnessFactor": 0.995
      },
      "doubleSided": false
    }
  ],
  "meshes": [
    {
      "primitives": [
        {
          "mode": 4,
          "attributes": {
            "POSITION": 0,
            "NORMAL": 1
          },
          "extras": {
            "type": "SubdivGeometry",
            "parameters": {
              "width": 374.10772705078125,
              "height": 286.5284729003906,
              "depth": 209.51367568969727
            }
          },
          "indices": 2,
          "material": 0
        }
      ]
    },
    {
      "primitives": [
        {
          "mode": 4,
          "attributes": {
            "POSITION": 3,
            "NORMAL": 4
          },
          "extras": {
            "type": "SubdivGeometry",
            "parameters": {
              "width": 167.99999618530273,
              "height": 511.0979461669922,
              "depth": 110
            }
          },
          "indices": 5,
          "material": 1
        }
      ]
    }
  ],
  "cameras": [
    {
      "type": "orthographic",
      "orthographic": {
        "xmag": 10.28442851351854,
        "ymag": 5.319062895219245,
        "zfar": 100000,
        "znear": 0
      }
    }
  ]
}