{
  "asset": {
    "version": "2.0",
    "generator": "THREE.GLTFExporter"
  },
  "scenes": [
    {
      "nodes": [
        0
      ]
    }
  ],
  "scene": 0,
  "nodes": [
    {
      "children": [
        7
      ],
      "matrix": [
        0.01,
        0,
        0,
        0,
        0,
        0.01,
        0,
        0,
        0,
        0,
        0.01,
        0,
        0,
        0,
        0,
        1
      ]
    },
    {
      "matrix": [
        1.057532174786348,
        -0.16951425807900386,
        -0.40481201711419074,
        0,
        0.01669957937348144,
        1.0709017267934369,
        -0.4048120171141906,
        0,
        0.43855327719774656,
        0.3679898931482156,
        0.9915828836765773,
        0,
        74.96444156005683,
        91.19821372771695,
        -57.82038525026465,
        1
      ],
      "name": "Cube 41",
      "mesh": 0
    },
    {
      "matrix": [
        0.4317974506166449,
        -1.0422063952335,
        0.1958033323920591,
        0,
        0.9655071922572932,
        0.2989505341618141,
        -0.5379652344011508,
        0,
        0.4385532771977468,
        0.3679898931482155,
        0.9915828836765771,
        0,
        98.42541945316157,
        65.9074648108767,
        -73.13650377710583,
        0.9999999999999998
      ],
      "name": "Cube 40",
      "mesh": 1
    },
    {
      "matrix": [
        0.7359797862964338,
        -0.8771065543954959,
        -2.4973969164545587e-16,
        0,
        0.7595965579323386,
        0.6373771916045551,
        -0.5724906448145005,
        0,
        0.43855327719774667,
        0.3679898931482156,
        0.991582883676577,
        0,
        2.9260746739754495,
        7.566342950593878,
        -7.953244343964216,
        0.9999999999999999
      ],
      "name": "Cube 39",
      "mesh": 2
    },
    {
      "matrix": [
        0.61,
        0,
        0,
        0,
        0,
        0.6099999999999998,
        0,
        0,
        0,
        0,
        0.6099999999999998,
        0,
        0,
        0,
        0,
        1
      ],
      "name": "Group",
      "children": [
        1,
        2,
        3
      ]
    },
    {
      "matrix": [
        0.99011378524567,
        -3.469446951953614e-18,
        -0.14026650443527655,
        0,
        -0.017983825375124083,
        0.9917468055743531,
        -0.126944301400036,
        0,
        0.13910885770276638,
        0.12821183109629994,
        0.9819421836725243,
        0,
        139.10885770276752,
        128.211831096301,
        981.9421836725234,
        1
      ],
      "camera": 0
    },
    {
      "matrix": [
        1,
        0,
        0,
        0,
        0,
        1,
        0,
        0,
        0,
        0,
        1,
        0,
        0,
        1,
        0,
        1
      ],
      "name": "Default Ambient Light"
    },
    {
      "name": "Scene 1",
      "children": [
        4,
        5,
        6
      ]
    }
  ],
  "bufferViews": [
    {
      "buffer": 0,
      "byteOffset": 0,
      "byteLength": 1152,
      "target": 34962,
      "byteStride": 12
    },
    {
      "buffer": 0,
      "byteOffset": 1152,
      "byteLength": 1152,
      "target": 34962,
      "byteStride": 12
    },
    {
      "buffer": 0,
      "byteOffset": 2304,
      "byteLength": 576,
      "target": 34963
    },
    {
      "buffer": 0,
      "byteOffset": 2880,
      "byteLength": 1152,
      "target": 34962,
      "byteStride": 12
    },
    {
      "buffer": 0,
      "byteOffset": 4032,
      "byteLength": 1152,
      "target": 34962,
      "byteStride": 12
    },
    {
      "buffer": 0,
      "byteOffset": 5184,
      "byteLength": 576,
      "target": 34963
    },
    {
      "buffer": 0,
      "byteOffset": 5760,
      "byteLength": 1920,
      "target": 34962,
      "byteStride": 12
    },
    {
      "buffer": 0,
      "byteOffset": 7680,
      "byteLength": 1920,
      "target": 34962,
      "byteStride": 12
    },
    {
      "buffer": 0,
      "byteOffset": 9600,
      "byteLength": 960,
      "target": 34963
    }
  ],
  "buffers": [
    {
      "byteLength": 10560,
      "uri": "data:application/octet-stream;base64,"
    }
  ],
  "accessors": [
    {
      "bufferView": 0,
      "componentType": 5126,
      "count": 96,
      "max": [
        16.920000076293945,
        27.94499969482422,
        7.0199995040893555
      ],
      "min": [
        -16.920000076293945,
        -27.94499969482422,
        -7.0199995040893555
      ],
      "type": "VEC3"
    },
    {
      "bufferView": 1,
      "componentType": 5126,
      "count": 96,
      "max": [
        1,
        1,
        1
      ],
      "min": [
        -1,
        -1,
        -1
      ],
      "type": "VEC3"
    },
    {
      "bufferView": 2,
      "componentType": 5125,
      "count": 144,
      "max": [
        95
      ],
      "min": [
        0
      ],
      "type": "SCALAR"
    },
    {
      "bufferView": 3,
      "componentType": 5126,
      "count": 96,
      "max": [
        20.15999984741211,
        33.119998931884766,
        8.279999732971191
      ],
      "min": [
        -20.15999984741211,
        -33.119998931884766,
        -8.279999732971191
      ],
      "type": "VEC3"
    },
    {
      "bufferView": 4,
      "componentType": 5126,
      "count": 96,
      "max": [
        1,
        1,
        1
      ],
      "min": [
        -1,
        -1,
        -1
      ],
      "type": "VEC3"
    },
    {
      "bufferView": 5,
      "componentType": 5125,
      "count": 144,
      "max": [
        95
      ],
      "min": [
        0
      ],
      "type": "SCALAR"
    },
    {
      "bufferView": 6,
      "componentType": 5126,
      "count": 160,
      "max": [
        41.84574890136719,
        93,
        41.84574890136719
      ],
      "min": [
        -41.84574890136719,
        -120.78471374511719,
        -41.84574890136719
      ],
      "type": "VEC3"
    },
    {
      "bufferView": 7,
      "componentType": 5126,
      "count": 160,
      "max": [
        0.9991947412490845,
        1,
        0.9991947412490845
      ],
      "min": [
        -0.9991947412490845,
        -1,
        -0.9991947412490845
      ],
      "type": "VEC3"
    },
    {
      "bufferView": 8,
      "componentType": 5125,
      "count": 240,
      "max": [
        159
      ],
      "min": [
        0
      ],
      "type": "SCALAR"
    }
  ],
  "materials": [
    {
      "pbrMetallicRoughness": {
        "baseColorFactor": [
          0.2599396066185174,
          0.40369727369804126,
          0.11743187399158185,
          1
        ],
        "metallicFactor": 0,
        "roughnessFactor": 1
      },
      "doubleSided": false
    },
    {
      "pbrMetallicRoughness": {
        "baseColorFactor": [
          0.7536455800246009,
          0.28476615803178407,
          0.12255279781791562,
          1
        ],
        "metallicFactor": 0,
        "roughnessFactor": 0.99
      },
      "doubleSided": false
    }
  ],
  "meshes": [
    {
      "primitives": [
        {
          "mode": 4,
          "attributes": {
            "POSITION": 0,
            "NORMAL": 1
          },
          "extras": {
            "type": "SubdivGeometry",
            "parameters": {
              "width": 33.84000015258789,
              "height": 55.88999938964844,
              "depth": 14.039999008178711
            }
          },
          "indices": 2,
          "material": 0
        }
      ]
    },
    {
      "primitives": [
        {
          "mode": 4,
          "attributes": {
            "POSITION": 3,
            "NORMAL": 4
          },
          "extras": {
            "type": "SubdivGeometry",
            "parameters": {
              "width": 40.31999969482422,
              "height": 66.23999786376953,
              "depth": 16.559999465942383
            }
          },
          "indices": 5,
          "material": 0
        }
      ]
    },
    {
      "primitives": [
        {
          "mode": 4,
          "attributes": {
            "POSITION": 6,
            "NORMAL": 7
          },
          "extras": {
            "type": "SubdivGeometry",
            "parameters": {
              "width": 91.81128692626953,
              "height": 213.7847137451172,
              "depth": 91.81128692626953
            }
          },
          "indices": 8,
          "material": 1
        }
      ]
    }
  ],
  "cameras": [
    {
      "type": "orthographic",
      "orthographic": {
        "xmag": 10.28442851351854,
        "ymag": 5.319062895219245,
        "zfar": 100000,
        "znear": 0
      }
    }
  ]
}