{
  "asset": {
    "version": "2.0",
    "generator": "THREE.GLTFExporter"
  },
  "scenes": [
    {
      "nodes": [
        0
      ]
    }
  ],
  "scene": 0,
  "nodes": [
    {
      "children": [
        27
      ],
      "matrix": [
        0.01,
        0,
        0,
        0,
        0,
        0.01,
        0,
        0,
        0,
        0,
        0.01,
        0,
        0,
        0,
        0,
        1
      ]
    },
    {
      "matrix": [
        1,
        0,
        0,
        0,
        0,
        1,
        0,
        0,
        0,
        0,
        1,
        0,
        -2.5458516110084304,
        1.7131070262449697,
        -5.312986682556307,
        1
      ],
      "name": "Group"
    },
    {
      "matrix": [
        1.1960476266302227,
        1.6538271729139142e-16,
        0.19572497420255855,
        0,
        0.19553350859262764,
        -0.05359422639739154,
        -1.1948776073760485,
        0,
        0.0086552032933605,
        1.2107707667396197,
        -0.05289072280736415,
        0,
        -1.1129026602106153,
        -85.35786006040753,
        -42.26411475625279,
        0.9999999999999999
      ],
      "mesh": 1
    },
    {
      "matrix": [
        1.2888386852773313,
        1.0718664768493812e-16,
        -0.2155914614209145,
        0,
        -0.21556187342343663,
        0.021648771145466737,
        -1.2886618037092143,
        0,
        0.003571689205969884,
        1.3065665561359276,
        0.021352103604206356,
        0,
        -11.960726239640342,
        -67.42912797880278,
        -42.045522446958806,
        0.9999999999999999
      ],
      "mesh": 1
    },
    {
      "matrix": [
        -0.643292976721589,
        -1.8033269684684252e-16,
        -1.0702279768254366,
        0,
        -1.0577658812211912,
        0.19000159921963444,
        0.6358022562853477,
        0,
        0.16284736075304132,
        1.2341447113581023,
        -0.09788434400754342,
        0,
        -30.99521843217863,
        -16.05486195970772,
        27.010247580158577,
        0.9999999999999999
      ],
      "mesh": 1
    },
    {
      "matrix": [
        -1.0420173858274333,
        -2.8730887660438707e-16,
        -0.6254494031814667,
        0,
        -0.6254487197104808,
        -0.0017966653582719408,
        1.0420162471443575,
        0,
        -0.0009246364560434769,
        1.2153122892081205,
        0.0015404719516330279,
        0,
        -49.68712330377126,
        -158.76267068908004,
        31.99837946373124,
        0.9999999999999999
      ],
      "mesh": 1
    },
    {
      "matrix": [
        0.21333508665434334,
        5.23901871751282e-16,
        1.277189781301592,
        0,
        1.2680247136454197,
        -0.15484799755491935,
        -0.21180420179193107,
        0,
        0.15273199745197075,
        1.2855923515299308,
        -0.02551155230673839,
        0,
        39.75985413936831,
        -65.88022147309037,
        -1.7096888828741459,
        0.9999999999999999
      ],
      "mesh": 1
    },
    {
      "matrix": [
        -0.5998947550059821,
        2.964742394319915e-16,
        1.0075667615039219,
        0,
        0.9962188452422582,
        -0.1754976840868587,
        0.593138323863436,
        0,
        0.1507938701396319,
        1.1594244515497067,
        0.08978109961546826,
        0,
        24.162614971629978,
        -134.48207612575305,
        21.23805052276429,
        0.9999999999999999
      ],
      "mesh": 1
    },
    {
      "matrix": [
        0.3317722948892043,
        2.905966865915708e-17,
        1.1555709578604283,
        0,
        0.7045235909614583,
        -0.9529685335988765,
        -0.20227352287361478,
        0,
        0.9159643816378686,
        0.7329857217415141,
        -0.26297961441972373,
        0,
        -3.3390312712168004,
        -216.8083761569083,
        -0.9608364445477269,
        0.9999999999999999
      ],
      "mesh": 1
    },
    {
      "matrix": [
        -1.0742980923079102,
        -2.963242827463963e-16,
        -0.645413872106877,
        0,
        -0.6443366249031534,
        0.072379482377737,
        1.0725050031508296,
        0,
        0.037274389551107574,
        1.2511741157709186,
        -0.062043608477113384,
        0,
        -19.487884864699392,
        -48.81803909746565,
        40.13167997903221,
        0.9999999999999999
      ],
      "mesh": 1
    },
    {
      "matrix": [
        0.41378372527699825,
        -3.480057111448431e-17,
        1.1705456853745526,
        0,
        0.6596967541766413,
        1.0255788197564337,
        -0.23320044993289535,
        0,
        -0.9669422909759344,
        0.6997015487478204,
        0.3418106514654076,
        0,
        14.31419444751294,
        53.62468742300497,
        -7.149937693716534,
        0.9999999999999999
      ],
      "mesh": 1
    },
    {
      "matrix": [
        0.21339698828659504,
        2.382924467511234e-16,
        1.2886337070003537,
        0,
        1.2774715562065047,
        0.17154807669084837,
        -0.21154854264275713,
        0,
        -0.16924317977636172,
        1.2948692454494912,
        0.028026571597597083,
        0,
        39.71826473305321,
        -9.195556857852727,
        -13.945337373060374,
        0.9999999999999999
      ],
      "mesh": 1
    },
    {
      "matrix": [
        -0.20455523872664808,
        -8.899799054095437e-17,
        -1.227976270571929,
        0,
        -1.2199162121652982,
        0.142399581591109,
        0.20321260107881267,
        0,
        0.1404640750655591,
        1.2367258895733273,
        -0.023398385698586006,
        0,
        -43.60837845719878,
        -53.60809010760586,
        10.416739839064126,
        0.9999999999999999
      ],
      "mesh": 1
    },
    {
      "matrix": [
        -1.1741970348533788,
        -9.812469184053728e-17,
        0.1935789224237348,
        0,
        0.19354021237768046,
        -0.023797982995913358,
        1.173962230254167,
        0,
        0.0038710979756052164,
        1.1898088635871429,
        0.02348102627946751,
        0,
        -9.074382880011756,
        -132.43579672293987,
        42.33822928726434,
        0.9999999999999999
      ],
      "mesh": 1
    },
    {
      "matrix": [
        -1.2183700240463253,
        6.70396809735195e-17,
        0.7396954434231183,
        0,
        0.7381866331947808,
        0.09099146823986641,
        1.2158848266985176,
        0,
        -0.04722121973731807,
        1.4224258916453683,
        -0.07777919836927123,
        0,
        29.5132424425109,
        -23.45116608245175,
        31.92894722666012,
        0.9999999999999999
      ],
      "mesh": 1
    },
    {
      "matrix": [
        -0.5662687073781985,
        9.469172715762834e-17,
        0.946117307775017,
        0,
        0.9378491693075172,
        -0.1454541840166268,
        0.5613200735841231,
        0,
        0.12480743447667948,
        1.0929964727204198,
        0.07469955787882561,
        0,
        27.43760952743378,
        -101.23337071327148,
        24.75813766581708,
        0.9999999999999999
      ],
      "mesh": 1
    },
    {
      "matrix": [
        -1.1857606731449495,
        -1.6463682094614368e-16,
        -0.1981039851893877,
        0,
        -0.19807847801841663,
        0.01929125970325885,
        1.1856079987795536,
        0,
        0.0031789139379924994,
        1.2020405193770065,
        -0.019027538125396273,
        0,
        -16.33852638697643,
        -53.44100357064294,
        41.07158229917916,
        0.9999999999999999
      ],
      "mesh": 1
    },
    {
      "matrix": [
        -0.6504911361407787,
        -3.2257427574611584e-16,
        -1.082393178071646,
        0,
        -1.049576679012054,
        0.30859790361845596,
        0.6307692437731018,
        0,
        0.26450668575684894,
        1.224532990170561,
        -0.1589618800456039,
        0,
        -23.906554920776202,
        24.448935390558294,
        22.827987064939165,
        0.9999999999999999
      ],
      "mesh": 1
    },
    {
      "matrix": [
        -0.6394027039972843,
        2.4500111567411994e-16,
        1.067747057716943,
        0,
        1.0579163273720305,
        -0.16849467942040988,
        0.6335157333712584,
        0,
        0.1445573365238485,
        1.2330973765884192,
        0.08656577528167454,
        0,
        30.148582954900107,
        -90.32008752474944,
        23.076616447006515,
        0.9999999999999999
      ],
      "mesh": 1
    },
    {
      "matrix": [
        1.181247183580179,
        6.083953055048854e-17,
        -0.2218522910794197,
        0,
        -0.22125157706739335,
        -0.0883875364751875,
        -1.178048696283112,
        0,
        -0.01631498398341104,
        1.198645481854056,
        -0.08686873949686148,
        0,
        -28.860550004442004,
        -173.80090567368148,
        -40.15665864730851,
        0.9999999999999999
      ],
      "mesh": 1
    },
    {
      "matrix": [
        0.7123982517927748,
        3.4726427423223705e-16,
        1.15731823886397,
        0,
        1.1448646451447317,
        -0.19883176654645396,
        -0.7047323237047225,
        0,
        0.16932350783289402,
        1.3443819039903138,
        -0.10422869606373875,
        0,
        28.576665192225768,
        -113.42876312297972,
        -18.970763431885203,
        0.9999999999999999
      ],
      "mesh": 1
    },
    {
      "matrix": [
        0.5918104398153095,
        -3.1722930038967447e-16,
        -1.0735616887269013,
        0,
        -1.0513629213575633,
        -0.2480025049835491,
        -0.5795731716469708,
        0,
        -0.21718818360272746,
        1.2005286559255601,
        -0.11972692003665193,
        0,
        -54.64007909928848,
        -195.51414878580965,
        -24.383235395266368,
        0.9999999999999999
      ],
      "mesh": 1
    },
    {
      "children": [
        2,
        3,
        4,
        5,
        6,
        7,
        8,
        9,
        10,
        11,
        12,
        13,
        14,
        15,
        16,
        17,
        18,
        19,
        20,
        21
      ]
    },
    {
      "matrix": [
        0.7959422295695008,
        -0.6053725854281243,
        0,
        0,
        0.6053725854281242,
        0.7959422295695008,
        0,
        0,
        0,
        0,
        0.9999999999999998,
        0,
        56.35178312678583,
        60.95955688175943,
        -5.312986682556307,
        1
      ],
      "name": "cucumber",
      "mesh": 0,
      "children": [
        22
      ]
    },
    {
      "matrix": [
        0.3366947364526361,
        -0.315441481944056,
        -0.8872053459679035,
        0,
        -0.5506851694909805,
        0.6983198135199102,
        -0.4572693759133805,
        0,
        0.7637948013359227,
        0.6425310183286547,
        0.06141165962389131,
        0,
        33.11924746326641,
        65.99264109094158,
        9.237819297617168,
        0.9999999999999999
      ],
      "name": "roughness",
      "mesh": 1
    },
    {
      "matrix": [
        0.910531535987319,
        -2.1045663385621527e-8,
        0.4134396231284241,
        0,
        0.021214528962648582,
        0.9986826597352221,
        -0.04672139665159438,
        0,
        -0.41289498148253956,
        0.051312231915813473,
        0.9093320565790866,
        0,
        -412.8949814825444,
        51.312231915814095,
        909.3320565790872,
        1
      ],
      "camera": 0
    },
    {
      "matrix": [
        1,
        0,
        0,
        0,
        0,
        1,
        0,
        0,
        0,
        0,
        1,
        0,
        0,
        1,
        0,
        1
      ],
      "name": "Default Ambient Light"
    },
    {
      "name": "Scene 1",
      "children": [
        1,
        23,
        24,
        25,
        26
      ]
    }
  ],
  "bufferViews": [
    {
      "buffer": 0,
      "byteOffset": 0,
      "byteLength": 13824,
      "target": 34962,
      "byteStride": 12
    },
    {
      "buffer": 0,
      "byteOffset": 13824,
      "byteLength": 13824,
      "target": 34962,
      "byteStride": 12
    },
    {
      "buffer": 0,
      "byteOffset": 27648,
      "byteLength": 6912,
      "target": 34963
    },
    {
      "buffer": 0,
      "byteOffset": 34560,
      "byteLength": 540,
      "target": 34962,
      "byteStride": 12
    },
    {
      "buffer": 0,
      "byteOffset": 35100,
      "byteLength": 540,
      "target": 34962,
      "byteStride": 12
    },
    {
      "buffer": 0,
      "byteOffset": 35640,
      "byteLength": 360,
      "target": 34962,
      "byteStride": 8
    },
    {
      "buffer": 0,
      "byteOffset": 36000,
      "byteLength": 288,
      "target": 34963
    }
  ],
  "buffers": [
    {
      "byteLength": 36288,
      "uri": "data:application/octet-stream;base64,"
    }
  ],
  "accessors": [
    {
      "bufferView": 0,
      "componentType": 5126,
      "count": 1152,
      "max": [
        42.81521224975586,
        59.304771423339844,
        43.503929138183594
      ],
      "min": [
        -64.33096313476562,
        -226.50238037109375,
        -43.503929138183594
      ],
      "type": "VEC3"
    },
    {
      "bufferView": 1,
      "componentType": 5126,
      "count": 1152,
      "max": [
        0.9999443888664246,
        0.9999985098838806,
        0.9999997615814209
      ],
      "min": [
        -0.9984301924705505,
        -0.9968089461326599,
        -0.9999999403953552
      ],
      "type": "VEC3"
    },
    {
      "bufferView": 2,
      "componentType": 5125,
      "count": 1728,
      "max": [
        1151
      ],
      "min": [
        0
      ],
      "type": "SCALAR"
    },
    {
      "bufferView": 3,
      "componentType": 5126,
      "count": 45,
      "max": [
        3.3235063552856445,
        3.3235063552856445,
        5.145038604736328
      ],
      "min": [
        -3.3235063552856445,
        -3.3235063552856445,
        -5.145038604736328
      ],
      "type": "VEC3"
    },
    {
      "bufferView": 4,
      "componentType": 5126,
      "count": 45,
      "max": [
        1,
        1,
        1
      ],
      "min": [
        -1,
        -1,
        -1
      ],
      "type": "VEC3"
    },
    {
      "bufferView": 5,
      "componentType": 5126,
      "count": 45,
      "max": [
        1.0625,
        1
      ],
      "min": [
        -0.0625,
        0
      ],
      "type": "VEC2"
    },
    {
      "bufferView": 6,
      "componentType": 5123,
      "count": 144,
      "max": [
        44
      ],
      "min": [
        0
      ],
      "type": "SCALAR"
    }
  ],
  "materials": [
    {
      "pbrMetallicRoughness": {
        "baseColorFactor": [
          0.3609817899307426,
          0.6604178292410714,
          0.46842734823320187,
          1
        ],
        "metallicFactor": 0,
        "roughnessFactor": 0.995
      },
      "doubleSided": false
    }
  ],
  "meshes": [
    {
      "primitives": [
        {
          "mode": 4,
          "attributes": {
            "POSITION": 0,
            "NORMAL": 1
          },
          "extras": {
            "type": "SubdivGeometry",
            "parameters": {
              "width": 113.85644912719727,
              "height": 292.87840270996094,
              "depth": 93.85338592529297
            }
          },
          "indices": 2,
          "material": 0
        }
      ]
    },
    {
      "primitives": [
        {
          "mode": 4,
          "attributes": {
            "POSITION": 3,
            "NORMAL": 4,
            "TEXCOORD_0": 5
          },
          "extras": {
            "parameters": {
              "width": 6.647012851581465,
              "widthSegments": 8,
              "heightSegments": 4,
              "phiStart": 0,
              "phiLength": 6.283185307179586,
              "thetaStart": 0,
              "thetaLength": 180,
              "height": 6.647012851581465,
              "depth": 10.290077377206465,
              "type": "SphereGeometry"
            },
            "type": "SphereGeometry"
          },
          "indices": 6,
          "material": 0
        }
      ]
    }
  ],
  "cameras": [
    {
      "type": "orthographic",
      "orthographic": {
        "xmag": 10.28442851351854,
        "ymag": 5.319062895219245,
        "zfar": 100000,
        "znear": 0
      }
    }
  ]
}