{
  "asset": {
    "version": "2.0",
    "generator": "THREE.GLTFExporter"
  },
  "scenes": [
    {
      "nodes": [
        0
      ]
    }
  ],
  "scene": 0,
  "nodes": [
    {
      "children": [
        5
      ],
      "matrix": [
        0.01,
        0,
        0,
        0,
        0,
        0.01,
        0,
        0,
        0,
        0,
        0.01,
        0,
        0,
        0,
        0,
        1
      ]
    },
    {
      "matrix": [
        0.8059276695282573,
        0,
        0,
        0,
        0,
        0.8059276695282573,
        0,
        0,
        0,
        0,
        0.8059276695282573,
        0,
        1.6978552777088594,
        3.7247219826209914,
        -3.9866945740197934,
        1
      ],
      "name": "plate",
      "mesh": 0
    },
    {
      "matrix": [
        0.20000000000000007,
        0,
        0,
        0,
        0,
        0.2,
        0,
        0,
        0,
        0,
        0.20000000000000007,
        0,
        -7.105427357601002e-15,
        -1.7763568394002505e-15,
        -1.7763568394002505e-15,
        1
      ],
      "name": "Plate fork knife",
      "children": [
        1
      ]
    },
    {
      "matrix": [
        2.220446049250313e-16,
        0,
        1,
        0,
        6.039613253960842e-17,
        1,
        -1.232595164407831e-32,
        0,
        -1,
        6.039613253960842e-17,
        2.220446049250313e-16,
        0,
        -998.5833352758867,
        14.192483761247505,
        5.191465111732279,
        1
      ],
      "camera": 0
    },
    {
      "matrix": [
        1,
        0,
        0,
        0,
        0,
        1,
        0,
        0,
        0,
        0,
        1,
        0,
        0,
        1,
        0,
        1
      ],
      "name": "Default Ambient Light"
    },
    {
      "name": "Scene 1",
      "children": [
        2,
        3,
        4
      ]
    }
  ],
  "bufferViews": [
    {
      "buffer": 0,
      "byteOffset": 0,
      "byteLength": 38496,
      "target": 34962,
      "byteStride": 12
    },
    {
      "buffer": 0,
      "byteOffset": 38496,
      "byteLength": 38496,
      "target": 34962,
      "byteStride": 12
    },
    {
      "buffer": 0,
      "byteOffset": 76992,
      "byteLength": 19248,
      "target": 34963
    }
  ],
  "buffers": [
    {
      "byteLength": 96240,
      "uri": "data:application/octet-stream;base64,"
    }
  ],
  "accessors": [
    {
      "bufferView": 0,
      "componentType": 5126,
      "count": 3208,
      "max": [
        123.66543579101562,
        34.9165153503418,
        123.66544342041016
      ],
      "min": [
        -123.66543579101562,
        -4.531359672546387,
        -123.66543579101562
      ],
      "type": "VEC3"
    },
    {
      "bufferView": 1,
      "componentType": 5126,
      "count": 3208,
      "max": [
        1,
        0.9999997019767761,
        1
      ],
      "min": [
        -1,
        -1,
        -1
      ],
      "type": "VEC3"
    },
    {
      "bufferView": 2,
      "componentType": 5125,
      "count": 4812,
      "max": [
        3207
      ],
      "min": [
        0
      ],
      "type": "SCALAR"
    }
  ],
  "materials": [
    {
      "pbrMetallicRoughness": {
        "baseColorFactor": [
          0.6751395395370791,
          0.6751395395370791,
          0.6751395395370791,
          1
        ],
        "metallicFactor": 0,
        "roughnessFactor": 0.985
      },
      "doubleSided": false
    }
  ],
  "meshes": [
    {
      "primitives": [
        {
          "mode": 4,
          "attributes": {
            "POSITION": 0,
            "NORMAL": 1
          },
          "extras": {
            "type": "SubdivGeometry",
            "parameters": {
              "width": 252.62513732910156,
              "height": 40.23366832733154,
              "depth": 252.62513732910156
            }
          },
          "indices": 2,
          "material": 0
        }
      ]
    }
  ],
  "cameras": [
    {
      "type": "orthographic",
      "orthographic": {
        "xmag": 0.8768255930280431,
        "ymag": 0.4517507519635222,
        "zfar": 100000,
        "znear": 0
      }
    }
  ]
}