{
  "asset": {
    "version": "2.0",
    "generator": "THREE.GLTFExporter"
  },
  "scenes": [
    {
      "nodes": [
        0
      ]
    }
  ],
  "scene": 0,
  "nodes": [
    {
      "children": [
        4
      ],
      "matrix": [
        0.01,
        0,
        0,
        0,
        0,
        0.01,
        0,
        0,
        0,
        0,
        0.01,
        0,
        0,
        0,
        0,
        1
      ]
    },
    {
      "name": "Egg",
      "mesh": 0
    },
    {
      "matrix": [
        0.8851945243140121,
        3.469446951953614e-18,
        -0.46522108091152725,
        0,
        -0.05385129133510719,
        0.993277889882994,
        -0.10246497885193824,
        0,
        0.4620938135768874,
        0.11575419417708692,
        0.8792441492466027,
        0,
        438.5081172084459,
        208.0557021704263,
        923.8042778997501,
        1
      ],
      "camera": 0
    },
    {
      "matrix": [
        1,
        0,
        0,
        0,
        0,
        1,
        0,
        0,
        0,
        0,
        1,
        0,
        0,
        1,
        0,
        1
      ],
      "name": "Default Ambient Light"
    },
    {
      "name": "Scene 1",
      "children": [
        1,
        2,
        3
      ]
    }
  ],
  "bufferViews": [
    {
      "buffer": 0,
      "byteOffset": 0,
      "byteLength": 7680,
      "target": 34962,
      "byteStride": 12
    },
    {
      "buffer": 0,
      "byteOffset": 7680,
      "byteLength": 7680,
      "target": 34962,
      "byteStride": 12
    },
    {
      "buffer": 0,
      "byteOffset": 15360,
      "byteLength": 3840,
      "target": 34963
    }
  ],
  "buffers": [
    {
      "byteLength": 19200,
      "uri": "data:application/octet-stream;base64,"
    }
  ],
  "accessors": [
    {
      "bufferView": 0,
      "componentType": 5126,
      "count": 640,
      "max": [
        68.55450439453125,
        87.70042419433594,
        68.55450439453125
      ],
      "min": [
        -68.55450439453125,
        -86.52244567871094,
        -68.55450439453125
      ],
      "type": "VEC3"
    },
    {
      "bufferView": 1,
      "componentType": 5126,
      "count": 640,
      "max": [
        0.9975593090057373,
        1,
        0.9975593090057373
      ],
      "min": [
        -0.9975593090057373,
        -0.9997458457946777,
        -0.9975593090057373
      ],
      "type": "VEC3"
    },
    {
      "bufferView": 2,
      "componentType": 5125,
      "count": 960,
      "max": [
        639
      ],
      "min": [
        0
      ],
      "type": "SCALAR"
    }
  ],
  "materials": [
    {
      "pbrMetallicRoughness": {
        "baseColorFactor": [
          0.7307246154892246,
          0.7307246154892246,
          0.7307246154892246,
          1
        ],
        "metallicFactor": 0,
        "roughnessFactor": 0.99
      },
      "doubleSided": false
    }
  ],
  "meshes": [
    {
      "primitives": [
        {
          "mode": 4,
          "attributes": {
            "POSITION": 0,
            "NORMAL": 1
          },
          "extras": {
            "type": "SubdivGeometry",
            "parameters": {
              "width": 151.85169982910156,
              "height": 188.80997467041016,
              "depth": 151.85169982910156
            }
          },
          "indices": 2,
          "material": 0
        }
      ]
    }
  ],
  "cameras": [
    {
      "type": "orthographic",
      "orthographic": {
        "xmag": 5.557294693125002,
        "ymag": 2.874209292343751,
        "zfar": 100000,
        "znear": 0
      }
    }
  ]
}