{
  "asset": {
    "version": "2.0",
    "generator": "THREE.GLTFExporter"
  },
  "scenes": [
    {
      "nodes": [
        0
      ]
    }
  ],
  "scene": 0,
  "nodes": [
    {
      "children": [
        6
      ],
      "matrix": [
        0.01,
        0,
        0,
        0,
        0,
        0.01,
        0,
        0,
        0,
        0,
        0.01,
        0,
        0,
        0,
        0,
        1
      ]
    },
    {
      "matrix": [
        0.5652169312693612,
        0,
        0,
        0,
        0,
        0.5652169312693612,
        0,
        0,
        0,
        0,
        0.5652169312693612,
        0,
        48.546499799707654,
        69.4603189112681,
        28.147397450881005,
        1
      ],
      "name": "leaves",
      "mesh": 0
    },
    {
      "matrix": [
        0.4991434982241227,
        -0.26519039872163314,
        -1.1765940956310358e-17,
        0,
        0.25918478061385863,
        0.48783967559041064,
        0.11960718963148417,
        0,
        -0.0561177072971145,
        -0.10562519935724246,
        0.5524167806846669,
        0,
        -4.820787088359488,
        -23.36074734776112,
        -2.2246707313785574,
        1
      ],
      "name": "oinion",
      "mesh": 1
    },
    {
      "matrix": [
        0.58,
        0,
        0,
        0,
        0,
        0.5799999999999997,
        0,
        0,
        0,
        0,
        0.5799999999999997,
        0,
        0,
        0,
        0,
        1
      ],
      "name": "Onion",
      "children": [
        1,
        2
      ]
    },
    {
      "matrix": [
        0.9901137855136497,
        -1.4778179013852366e-8,
        -0.14026650254365913,
        0,
        -0.017983810621278983,
        0.991746805574353,
        -0.12694430349016983,
        0,
        0.13910885770276643,
        0.12821183109629997,
        0.9819421836725243,
        0,
        139.10885770276752,
        128.21183109630104,
        981.9421836725234,
        1
      ],
      "camera": 0
    },
    {
      "matrix": [
        1,
        0,
        0,
        0,
        0,
        1,
        0,
        0,
        0,
        0,
        1,
        0,
        0,
        1,
        0,
        1
      ],
      "name": "Default Ambient Light"
    },
    {
      "name": "Scene 1",
      "children": [
        3,
        4,
        5
      ]
    }
  ],
  "bufferViews": [
    {
      "buffer": 0,
      "byteOffset": 0,
      "byteLength": 10368,
      "target": 34962,
      "byteStride": 12
    },
    {
      "buffer": 0,
      "byteOffset": 10368,
      "byteLength": 10368,
      "target": 34962,
      "byteStride": 12
    },
    {
      "buffer": 0,
      "byteOffset": 20736,
      "byteLength": 5184,
      "target": 34963
    },
    {
      "buffer": 0,
      "byteOffset": 25920,
      "byteLength": 15360,
      "target": 34962,
      "byteStride": 12
    },
    {
      "buffer": 0,
      "byteOffset": 41280,
      "byteLength": 15360,
      "target": 34962,
      "byteStride": 12
    },
    {
      "buffer": 0,
      "byteOffset": 56640,
      "byteLength": 7680,
      "target": 34963
    }
  ],
  "buffers": [
    {
      "byteLength": 64320,
      "uri": "data:application/octet-stream;base64,"
    }
  ],
  "accessors": [
    {
      "bufferView": 0,
      "componentType": 5126,
      "count": 864,
      "max": [
        59.26169204711914,
        92.7061767578125,
        56.263275146484375
      ],
      "min": [
        -63.820308685302734,
        -93.1883544921875,
        -54.26482391357422
      ],
      "type": "VEC3"
    },
    {
      "bufferView": 1,
      "componentType": 5126,
      "count": 864,
      "max": [
        0.9948004484176636,
        0.8907626271247864,
        0.9883908033370972
      ],
      "min": [
        -0.9964615702629089,
        -0.937140166759491,
        -0.9949102401733398
      ],
      "type": "VEC3"
    },
    {
      "bufferView": 2,
      "componentType": 5125,
      "count": 1296,
      "max": [
        863
      ],
      "min": [
        0
      ],
      "type": "SCALAR"
    },
    {
      "bufferView": 3,
      "componentType": 5126,
      "count": 1280,
      "max": [
        153.80471801757812,
        171.01907348632812,
        155.14317321777344
      ],
      "min": [
        -153.80471801757812,
        -130.9219512939453,
        -155.14317321777344
      ],
      "type": "VEC3"
    },
    {
      "bufferView": 4,
      "componentType": 5126,
      "count": 1280,
      "max": [
        1,
        1,
        1
      ],
      "min": [
        -1,
        -1,
        -1
      ],
      "type": "VEC3"
    },
    {
      "bufferView": 5,
      "componentType": 5125,
      "count": 1920,
      "max": [
        1279
      ],
      "min": [
        0
      ],
      "type": "SCALAR"
    }
  ],
  "materials": [
    {
      "pbrMetallicRoughness": {
        "baseColorFactor": [
          0.11105178796012694,
          0.3593753615914598,
          0.10452203015679389,
          1
        ],
        "metallicFactor": 0,
        "roughnessFactor": 0.995
      },
      "doubleSided": false
    },
    {
      "pbrMetallicRoughness": {
        "baseColorFactor": [
          0.7873099190848214,
          0.7169423152816539,
          0.5895015165513876,
          1
        ],
        "metallicFactor": 0,
        "roughnessFactor": 0.995
      },
      "doubleSided": false
    }
  ],
  "meshes": [
    {
      "primitives": [
        {
          "mode": 4,
          "attributes": {
            "POSITION": 0,
            "NORMAL": 1
          },
          "extras": {
            "type": "SubdivGeometry",
            "parameters": {
              "width": 123.08200073242188,
              "height": 185.89453125,
              "depth": 110.5280990600586
            }
          },
          "indices": 2,
          "material": 0
        }
      ]
    },
    {
      "primitives": [
        {
          "mode": 4,
          "attributes": {
            "POSITION": 3,
            "NORMAL": 4
          },
          "extras": {
            "type": "SubdivGeometry",
            "parameters": {
              "width": 341.34698486328125,
              "height": 317.2004699707031,
              "depth": 341.34698486328125
            }
          },
          "indices": 5,
          "material": 1
        }
      ]
    }
  ],
  "cameras": [
    {
      "type": "orthographic",
      "orthographic": {
        "xmag": 10.28442851351854,
        "ymag": 5.319062895219245,
        "zfar": 100000,
        "znear": 0
      }
    }
  ]
}