{
  "asset": {
    "version": "2.0",
    "generator": "THREE.GLTFExporter"
  },
  "scenes": [
    {
      "nodes": [
        0
      ]
    }
  ],
  "scene": 0,
  "nodes": [
    {
      "children": [
        5
      ],
      "matrix": [
        0.01,
        0,
        0,
        0,
        0,
        0.01,
        0,
        0,
        0,
        0,
        0.01,
        0,
        0,
        0,
        0,
        1
      ]
    },
    {
      "matrix": [
        0.7086863301171226,
        8.678904457774185e-17,
        0,
        0,
        8.678904457774185e-17,
        -0.7086863301171226,
        0,
        0,
        0,
        0,
        0.7086863301171226,
        0,
        7.549516567451063e-15,
        -57.70634376463782,
        0,
        1
      ],
      "name": "bowl",
      "mesh": 0
    },
    {
      "matrix": [
        1,
        0,
        0,
        0,
        0,
        1,
        0,
        0,
        0,
        0,
        1,
        0,
        -3.940102047186656,
        65.03338291303682,
        0,
        1
      ],
      "name": "Bowl",
      "children": [
        1
      ]
    },
    {
      "matrix": [
        0.9374425736197257,
        -2.2559514437081596e-8,
        -0.34813994479982424,
        0,
        -0.22749122005317773,
        0.7569716913143343,
        -0.6125696722393567,
        0,
        0.2635320966484763,
        0.6534476708572122,
        0.7096174853308946,
        0,
        105.49172540243822,
        562.2512840966058,
        346.1947231048531,
        1
      ],
      "camera": 0
    },
    {
      "matrix": [
        1,
        0,
        0,
        0,
        0,
        1,
        0,
        0,
        0,
        0,
        1,
        0,
        0,
        1,
        0,
        1
      ],
      "name": "Default Ambient Light"
    },
    {
      "name": "Scene",
      "children": [
        2,
        3,
        4
      ]
    }
  ],
  "bufferViews": [
    {
      "buffer": 0,
      "byteOffset": 0,
      "byteLength": 761856,
      "target": 34962,
      "byteStride": 12
    },
    {
      "buffer": 0,
      "byteOffset": 761856,
      "byteLength": 761856,
      "target": 34962,
      "byteStride": 12
    },
    {
      "buffer": 0,
      "byteOffset": 1523712,
      "byteLength": 380928,
      "target": 34963
    }
  ],
  "buffers": [
    {
      "byteLength": 1904640,
      "uri": "data:application/octet-stream;base64,"
    }
  ],
  "accessors": [
    {
      "bufferView": 0,
      "componentType": 5126,
      "count": 63488,
      "max": [
        202.4252166748047,
        13,
        202.4252166748047
      ],
      "min": [
        -202.4252166748047,
        -175.5950927734375,
        -202.4252166748047
      ],
      "type": "VEC3"
    },
    {
      "bufferView": 1,
      "componentType": 5126,
      "count": 63488,
      "max": [
        1,
        1,
        1
      ],
      "min": [
        -1,
        -1,
        -1
      ],
      "type": "VEC3"
    },
    {
      "bufferView": 2,
      "componentType": 5125,
      "count": 95232,
      "max": [
        63487
      ],
      "min": [
        0
      ],
      "type": "SCALAR"
    }
  ],
  "materials": [
    {
      "pbrMetallicRoughness": {
        "baseColorFactor": [
          0.4829283361099542,
          0.46070046559648975,
          0.40473412162360944,
          1
        ],
        "metallicFactor": 0,
        "roughnessFactor": 0.995
      },
      "doubleSided": false
    }
  ],
  "meshes": [
    {
      "primitives": [
        {
          "mode": 4,
          "attributes": {
            "POSITION": 0,
            "NORMAL": 1
          },
          "extras": {
            "type": "SubdivGeometry",
            "parameters": {
              "width": 416.4564208984375,
              "height": 188.85440063476562,
              "depth": 416.4564208984375
            }
          },
          "indices": 2,
          "material": 0
        }
      ]
    }
  ],
  "cameras": [
    {
      "type": "orthographic",
      "orthographic": {
        "xmag": 10.28442851351854,
        "ymag": 5.319062895219245,
        "zfar": 100000,
        "znear": 0
      }
    }
  ]
}