{
  "asset": {
    "version": "2.0",
    "generator": "THREE.GLTFExporter"
  },
  "scenes": [
    {
      "nodes": [
        0
      ]
    }
  ],
  "scene": 0,
  "nodes": [
    {
      "children": [
        4
      ],
      "matrix": [
        0.01,
        0,
        0,
        0,
        0,
        0.01,
        0,
        0,
        0,
        0,
        0.01,
        0,
        0,
        0,
        0,
        1
      ]
    },
    {
      "matrix": [
        1,
        0,
        0,
        0,
        0,
        2.220446049250313e-16,
        -1,
        0,
        0,
        1,
        2.220446049250313e-16,
        0,
        0,
        0,
        0,
        1
      ],
      "name": "Ellipse",
      "mesh": 0
    },
    {
      "matrix": [
        -0.9999210733694632,
        1.1783688932606728e-8,
        0.012563718862689161,
        0,
        0.007690105644292569,
        0.7907899780151793,
        0.6120392740224535,
        0,
        -0.009935255751134436,
        0.612087584150138,
        -0.7907275637173701,
        0,
        -8.518591027019678,
        626.2800679113856,
        -785.5360986056393,
        1
      ],
      "camera": 0
    },
    {
      "matrix": [
        1,
        0,
        0,
        0,
        0,
        1,
        0,
        0,
        0,
        0,
        1,
        0,
        0,
        1,
        0,
        1
      ],
      "name": "Default Ambient Light"
    },
    {
      "name": "Scene 1",
      "children": [
        1,
        2,
        3
      ]
    }
  ],
  "bufferViews": [
    {
      "buffer": 0,
      "byteOffset": 0,
      "byteLength": 3072,
      "target": 34962,
      "byteStride": 12
    },
    {
      "buffer": 0,
      "byteOffset": 3072,
      "byteLength": 3072,
      "target": 34962,
      "byteStride": 12
    },
    {
      "buffer": 0,
      "byteOffset": 6144,
      "byteLength": 2048,
      "target": 34962,
      "byteStride": 8
    },
    {
      "buffer": 0,
      "byteOffset": 8192,
      "byteLength": 3024,
      "target": 34963
    }
  ],
  "buffers": [
    {
      "byteLength": 11216,
      "uri": "data:application/octet-stream;base64,"
    }
  ],
  "accessors": [
    {
      "bufferView": 0,
      "componentType": 5126,
      "count": 256,
      "max": [
        50,
        50,
        18
      ],
      "min": [
        -50,
        -50,
        0
      ],
      "type": "VEC3"
    },
    {
      "bufferView": 1,
      "componentType": 5126,
      "count": 256,
      "max": [
        0.9987275004386902,
        0.9987275004386902,
        1
      ],
      "min": [
        -0.9987275004386902,
        -0.9987275004386902,
        -1
      ],
      "type": "VEC3"
    },
    {
      "bufferView": 2,
      "componentType": 5126,
      "count": 256,
      "max": [
        1,
        1
      ],
      "min": [
        0,
        0
      ],
      "type": "VEC2"
    },
    {
      "bufferView": 3,
      "componentType": 5125,
      "count": 756,
      "max": [
        255
      ],
      "min": [
        0
      ],
      "type": "SCALAR"
    }
  ],
  "materials": [
    {
      "pbrMetallicRoughness": {
        "baseColorTexture": {
          "index": 0,
          "extensions": {
            "KHR_texture_transform": {
              "offset": [
                0,
                0
              ],
              "scale": [
                1,
                1
              ]
            }
          }
        },
        "metallicFactor": 0,
        "roughnessFactor": 0.995
      },
      "doubleSided": false
    }
  ],
  "textures": [
    {
      "sampler": 0,
      "source": 0
    }
  ],
  "samplers": [
    {
      "magFilter": 9729,
      "minFilter": 9729,
      "wrapS": 10497,
      "wrapT": 10497
    }
  ],
  "images": [
    {
      "mimeType": "image/jpeg",
      "uri": "data:image/jpeg;base64,"
    }
  ],
  "meshes": [
    {
      "primitives": [
        {
          "mode": 4,
          "attributes": {
            "POSITION": 0,
            "NORMAL": 1,
            "TEXCOORD_0": 2
          },
          "extras": {
            "shape": {
              "points": [
                -50,
                0,
                -50,
                -27.614237489999997,
                -50,
                27.614237489999997,
                0,
                0,
                50,
                -27.614237489999997,
                50,
                27.614237489999997,
                50,
                0,
                50,
                0,
                50,
                27.614237489999997,
                50,
                -27.614237489999997,
                0,
                0,
                -50,
                27.614237489999997,
                -50,
                -27.614237489999997,
                -50,
                0
              ],
              "shapeHoles": [],
              "isClosed": true,
              "roundness": 0
            },
            "parameters": {
              "width": 100,
              "depth": 18,
              "spikes": 64,
              "angle": 360,
              "innerRadius": 0,
              "extrudeBevelSize": 0,
              "extrudeBevelSegments": 1,
              "height": 100,
              "type": "EllipseGeometry"
            },
            "type": "EllipseGeometry"
          },
          "indices": 3,
          "material": 0
        }
      ]
    }
  ],
  "cameras": [
    {
      "type": "orthographic",
      "orthographic": {
        "xmag": 0.9715519036321807,
        "ymag": 0.5005548498210772,
        "zfar": 100000,
        "znear": 0
      }
    }
  ],
  "extensionsUsed": [
    "KHR_texture_transform"
  ]
}