{
  "asset": {
    "version": "2.0",
    "generator": "THREE.GLTFExporter"
  },
  "scenes": [
    {
      "nodes": [
        0
      ]
    }
  ],
  "scene": 0,
  "nodes": [
    {
      "children": [
        6
      ],
      "matrix": [
        0.01,
        0,
        0,
        0,
        0,
        0.01,
        0,
        0,
        0,
        0,
        0.01,
        0,
        0,
        0,
        0,
        1
      ]
    },
    {
      "matrix": [
        -0.2740035114063829,
        -0.05097096998533871,
        0.40509681679641335,
        0,
        -0.0017028094851515574,
        0.4894665938148645,
        0.06043496336896574,
        0,
        -0.4095127380022462,
        0.03227424183804972,
        -0.2729295175424582,
        0,
        -2.400174499166212,
        67.29137032738419,
        10.727992150392815,
        0.9999999999999996
      ],
      "name": "Cylinder",
      "mesh": 0
    },
    {
      "matrix": [
        0.4931864057516962,
        0,
        0,
        0,
        0,
        0.4931864057516962,
        0,
        0,
        0,
        0,
        0.4931864057516962,
        0,
        -0.19932848632383582,
        -27.153739836383647,
        -7.192007506768629,
        1
      ],
      "name": "tomato",
      "mesh": 1
    },
    {
      "matrix": [
        0.38,
        0,
        0,
        0,
        0,
        0.38000000000000006,
        0,
        0,
        0,
        0,
        0.38000000000000006,
        0,
        0,
        0,
        0,
        1
      ],
      "name": "Tomato",
      "children": [
        1,
        2
      ]
    },
    {
      "matrix": [
        1,
        0,
        0,
        0,
        0,
        1,
        -6.123233995736766e-17,
        0,
        0,
        6.123233995736766e-17,
        1,
        0,
        0,
        6.12323399573682e-14,
        1000,
        1
      ],
      "camera": 0
    },
    {
      "matrix": [
        1,
        0,
        0,
        0,
        0,
        1,
        0,
        0,
        0,
        0,
        1,
        0,
        0,
        1,
        0,
        1
      ],
      "name": "Default Ambient Light"
    },
    {
      "name": "Scene 1",
      "children": [
        3,
        4,
        5
      ]
    }
  ],
  "bufferViews": [
    {
      "buffer": 0,
      "byteOffset": 0,
      "byteLength": 24960,
      "target": 34962,
      "byteStride": 12
    },
    {
      "buffer": 0,
      "byteOffset": 24960,
      "byteLength": 24960,
      "target": 34962,
      "byteStride": 12
    },
    {
      "buffer": 0,
      "byteOffset": 49920,
      "byteLength": 12480,
      "target": 34963
    },
    {
      "buffer": 0,
      "byteOffset": 62400,
      "byteLength": 12672,
      "target": 34962,
      "byteStride": 12
    },
    {
      "buffer": 0,
      "byteOffset": 75072,
      "byteLength": 12672,
      "target": 34962,
      "byteStride": 12
    },
    {
      "buffer": 0,
      "byteOffset": 87744,
      "byteLength": 6336,
      "target": 34963
    }
  ],
  "buffers": [
    {
      "byteLength": 94080,
      "uri": "data:application/octet-stream;base64,"
    }
  ],
  "accessors": [
    {
      "bufferView": 0,
      "componentType": 5126,
      "count": 2080,
      "max": [
        121.17513275146484,
        73.62234497070312,
        138.7488555908203
      ],
      "min": [
        -150.1527099609375,
        -46.957191467285156,
        -159.62063598632812
      ],
      "type": "VEC3"
    },
    {
      "bufferView": 1,
      "componentType": 5126,
      "count": 2080,
      "max": [
        0.9999699592590332,
        0.9999709129333496,
        0.9978909492492676
      ],
      "min": [
        -0.9999699592590332,
        -1,
        -0.9971369504928589
      ],
      "type": "VEC3"
    },
    {
      "bufferView": 2,
      "componentType": 5125,
      "count": 3120,
      "max": [
        2079
      ],
      "min": [
        0
      ],
      "type": "SCALAR"
    },
    {
      "bufferView": 3,
      "componentType": 5126,
      "count": 1056,
      "max": [
        192.0873565673828,
        174.2710723876953,
        173.24465942382812
      ],
      "min": [
        -192.94851684570312,
        -167.11907958984375,
        -174.26016235351562
      ],
      "type": "VEC3"
    },
    {
      "bufferView": 4,
      "componentType": 5126,
      "count": 1056,
      "max": [
        0.9962611198425293,
        0.9999362826347351,
        0.9996621608734131
      ],
      "min": [
        -0.9949027895927429,
        -0.9984048008918762,
        -0.9990279674530029
      ],
      "type": "VEC3"
    },
    {
      "bufferView": 5,
      "componentType": 5125,
      "count": 1584,
      "max": [
        1055
      ],
      "min": [
        0
      ],
      "type": "SCALAR"
    }
  ],
  "materials": [
    {
      "pbrMetallicRoughness": {
        "baseColorFactor": [
          0.1473410926367729,
          0.3467538733899677,
          0.09827309285561503,
          1
        ],
        "metallicFactor": 0,
        "roughnessFactor": 0.995
      },
      "doubleSided": false
    },
    {
      "pbrMetallicRoughness": {
        "baseColorFactor": [
          0.6642584717916387,
          0.16363901817229493,
          0.1422751149175693,
          1
        ],
        "metallicFactor": 0,
        "roughnessFactor": 0.995
      },
      "doubleSided": false
    }
  ],
  "meshes": [
    {
      "primitives": [
        {
          "mode": 4,
          "attributes": {
            "POSITION": 0,
            "NORMAL": 1
          },
          "extras": {
            "type": "SubdivGeometry",
            "parameters": {
              "width": 284.35337829589844,
              "height": 128.32483673095703,
              "depth": 309.394775390625
            }
          },
          "indices": 2,
          "material": 0
        }
      ]
    },
    {
      "primitives": [
        {
          "mode": 4,
          "attributes": {
            "POSITION": 3,
            "NORMAL": 4
          },
          "extras": {
            "type": "SubdivGeometry",
            "parameters": {
              "width": 405.89390563964844,
              "height": 352.1119079589844,
              "depth": 354.3531494140625
            }
          },
          "indices": 5,
          "material": 1
        }
      ]
    }
  ],
  "cameras": [
    {
      "type": "orthographic",
      "orthographic": {
        "xmag": 7.5600000000000005,
        "ymag": 3.91,
        "zfar": 100000,
        "znear": 0
      }
    }
  ]
}