<svg width="40" height="40" viewBox="0 0 40 40" fill="none" xmlns="http://www.w3.org/2000/svg">
<path d="M24.1673 6.66667H15.834L11.6673 11.6667H6.66732C5.78326 11.6667 4.93542 12.0179 4.31029 12.643C3.68517 13.2681 3.33398 14.1159 3.33398 15V30C3.33398 30.8841 3.68517 31.7319 4.31029 32.357C4.93542 32.9821 5.78326 33.3333 6.66732 33.3333H33.334C34.218 33.3333 35.0659 32.9821 35.691 32.357C36.3161 31.7319 36.6673 30.8841 36.6673 30V15C36.6673 14.1159 36.3161 13.2681 35.691 12.643C35.0659 12.0179 34.218 11.6667 33.334 11.6667H28.334L24.1673 6.66667Z" stroke="#71717A" stroke-width="3.33333" stroke-linecap="round" stroke-linejoin="round"/>
<path d="M20.0007 26.6667C22.7621 26.6667 25.0007 24.4281 25.0007 21.6667C25.0007 18.9052 22.7621 16.6667 20.0007 16.6667C17.2392 16.6667 15.0007 18.9052 15.0007 21.6667C15.0007 24.4281 17.2392 26.6667 20.0007 26.6667Z" stroke="#71717A" stroke-width="3.33333" stroke-linecap="round" stroke-linejoin="round"/>
</svg>
