<svg width="64" height="64" viewBox="0 0 64 64" fill="none" xmlns="http://www.w3.org/2000/svg">
<rect x="0.5" y="0.5" width="63" height="63" rx="31.5" fill="white"/>
<rect x="0.5" y="0.5" width="63" height="63" rx="31.5" stroke="#E4E4E7"/>
<path d="M43.7666 29.6498H42.8V29.6H32V34.4H38.7818C37.7924 37.1942 35.1338 39.2 32 39.2C28.0238 39.2 24.8 35.9762 24.8 32C24.8 28.0238 28.0238 24.8 32 24.8C33.8354 24.8 35.5052 25.4924 36.7766 26.6234L40.1708 23.2292C38.0276 21.2318 35.1608 20 32 20C25.373 20 20 25.373 20 32C20 38.627 25.373 44 32 44C38.627 44 44 38.627 44 32C44 31.1954 43.9172 30.41 43.7666 29.6498Z" fill="#FFC107"/>
<path d="M21.3848 26.4146L25.3274 29.306C26.3942 26.6648 28.9778 24.8 32.0012 24.8C33.8366 24.8 35.5064 25.4924 36.7778 26.6234L40.172 23.2292C38.0288 21.2318 35.162 20 32.0012 20C27.392 20 23.3948 22.6022 21.3848 26.4146Z" fill="#FF3D00"/>
<path d="M31.9994 44C35.099 44 37.9154 42.8138 40.0448 40.8848L36.3308 37.742C35.126 38.6546 33.6284 39.2 31.9994 39.2C28.8782 39.2 26.228 37.2098 25.2296 34.4324L21.3164 37.4474C23.3024 41.3336 27.3356 44 31.9994 44Z" fill="#4CAF50"/>
<path d="M43.7666 29.6498H42.8V29.6H32V34.4H38.7818C38.3066 35.7422 37.4432 36.8996 36.3296 37.7426L36.3314 37.7414L40.0454 40.8842C39.7826 41.123 44 38 44 32C44 31.1954 43.9172 30.41 43.7666 29.6498Z" fill="#1976D2"/>
</svg>
